<svg width="133" height="133" viewBox="0 0 133 133" fill="none" xmlns="http://www.w3.org/2000/svg">
<rect width="133" height="133" rx="11" fill="#EFEFEF"/>
<g clip-path="url(#clip0_1_74)">
<path d="M66.0129 89.8942L44.5611 103.508L57.6718 82.116L66.0129 89.8942Z" fill="#282829"/>
<path d="M91.4375 112.219L55.3539 80.2504L103.906 29.0938L91.4375 112.219Z" fill="#48565C"/>
<path d="M45.7187 70.6563L20.7812 58.1875L103.906 29.0938L45.7187 70.6563Z" fill="#48565C"/>
<path d="M44.5611 72.1631V103.508L57.6718 82.116L105.744 26.803L44.5611 72.1631Z" fill="#23292E"/>
<path d="M89.811 60.2675C89.3629 60.2675 88.9134 60.1072 88.5561 59.7818C87.7937 59.0883 87.7378 57.9082 88.4312 57.1458L88.4605 57.1135C89.154 56.3513 90.3345 56.2952 91.0965 56.9888C91.8591 57.6823 91.9148 58.8624 91.2213 59.6248L91.192 59.6571C90.8238 60.062 90.3182 60.2675 89.811 60.2675Z" fill="black"/>
<path d="M73.5742 78.1615C73.1268 78.1615 72.678 78.0016 72.3206 77.6775C71.5574 76.9848 71.5002 75.8047 72.1928 75.0417L84.3728 61.6187C85.0652 60.8554 86.2457 60.7983 87.0086 61.4907C87.7719 62.1832 87.829 63.3635 87.1366 64.1264L74.9566 77.5495C74.5884 77.955 74.0822 78.1615 73.5742 78.1615Z" fill="black"/>
<path d="M106.527 25.1095C106.067 24.8964 105.554 24.8861 105.101 25.0523C105.101 25.052 105.101 25.0518 105.101 25.0514L18.2996 56.9236C17.6074 57.1778 17.1297 57.8159 17.0811 58.5517C17.032 59.2874 17.4211 59.983 18.0737 60.3266L42.6951 73.2893V103.508C42.6951 104.343 43.2507 105.077 44.0545 105.304C44.2224 105.351 44.3929 105.374 44.5611 105.374C44.9169 105.374 45.2617 105.269 45.5587 105.08C45.5594 105.081 45.5602 105.082 45.5612 105.083L65.7952 92.243L91.1351 115.874C91.4862 116.201 91.9428 116.375 92.4078 116.375C92.6132 116.375 92.8204 116.341 93.0206 116.271C93.6742 116.044 94.1484 115.473 94.2525 114.789L107.589 27.0838C107.714 26.2626 107.281 25.4581 106.527 25.1095ZM94.2235 33.0213L44.3922 69.9652L23.5271 58.9803L94.2235 33.0213ZM46.4272 73.1025L93.1161 38.4886L56.2633 80.8917C56.1943 80.971 56.1351 81.0552 56.0818 81.1419C56.0815 81.1414 56.0811 81.1412 56.0806 81.1407L46.427 96.8918L46.4272 73.1025ZM50.3595 97.6177L58.0692 85.0382L62.9741 89.6124L50.3595 97.6177ZM91.094 110.732L60.262 81.9799L102.932 32.8836L91.094 110.732Z" fill="black"/>
</g>
<defs>
<clipPath id="clip0_1_74">
<rect width="91.4375" height="91.4375" fill="white" transform="translate(16.625 24.9375)"/>
</clipPath>
</defs>
</svg>
